#N canvas -8 -8 1366 685 12;
#X obj 123 57 udpreceive 8000;
#X obj 123 102 unpackOSC;
#X obj 123 139 send command;
#N canvas 0 50 450 250 (subpatch) 0;
#X array array1 7.51109e+006 float 4;
#X coords 0 1 7.51109e+006 -1 200 140 1;
#X restore 868 29 graph;
#X obj 480 7 receive command;
#X obj 494 199 soundfiler;
#X obj 578 300 phasor~;
#X obj 714 646 dac~;
#X obj 547 228 expr 44100/$f1;
#X msg 416 193 0;
#X obj 480 37 routeOSC /1/input;
#X obj 352 91 routeOSC /1/stop;
#X obj 287 192 routeOSC /1/play;
#X obj 569 82 send out;
#X obj 80 256 receive out;
#X msg 131 363 disconnect;
#X obj 86 513 udpsend;
#X obj 169 474 packOSC;
#X obj 286 399 receive out;
#X obj 817 292 receive command;
#X obj 768 317 routeOSC /1/pan;
#X obj 720 394 +;
#X obj 776 378 *;
#X obj 703 422 send num_pan;
#X obj 720 96 hsl 128 15 0 0.006 0 0 empty empty empty -2 -8 0 10 -262144
-1 -1 10403 1;
#X obj 729 53 receive num_pan;
#X msg 687 357 0;
#X msg 820 347 0.006;
#X obj 546 437 receive command;
#X obj 549 472 routeOSC /1/volume;
#X obj 509 515 *~;
#X obj 298 291 receive command;
#X obj 307 333 routeOSC /1/atmoff;
#X obj 488 87 openpanel;
#X obj 485 65 sel 0;
#X obj 534 117 send name;
#X obj 192 400 receive name;
#X msg 266 438 send /1/trackname \$1;
#X obj 61 154 print;
#X obj 528 401 tabread4~ array1;
#X obj 500 349 *~;
#X obj 835 450 receive command;
#X obj 763 584 * -1;
#X obj 720 610 clip~ \$1 \$2;
#X obj 839 525 random 100;
#X obj 839 549 / 100;
#X obj 820 504 sel 0;
#X obj 822 478 routeOSC /1/solo;
#X obj 693 457 receive command;
#X obj 674 497 routeOSC /1/mute;
#X msg 604 514 0;
#X obj 655 532 sel 0;
#X obj 1131 164 receive command;
#X obj 1034 211 routeOSC /1/rewind;
#X obj 1187 209 routeOSC /1/forward;
#X floatatom 1024 367 5 0 0 0 - - -;
#X floatatom 1054 427 5 0 0 0 - - -;
#X obj 1057 394 +;
#X obj 1046 469 send n;
#X obj 692 200 receive n;
#X msg 87 294 connect 192.168.0.103 9000;
#X obj 1033 239 tgl 15 0 empty empty empty 17 7 0 10 -262144 -1 -1
0 1;
#X msg 1038 292 1;
#X obj 1179 242 tgl 15 0 empty empty empty 17 7 0 10 -262144 -1 -1
0 1;
#X msg 1184 295 1;
#X obj 1052 334 / -100;
#X obj 1170 347 / 100;
#X obj 1033 266 metro 100;
#X obj 1179 269 metro 100;
#X obj 1139 415 receive command;
#X obj 1139 451 routeOSC /1/cycle;
#X obj 1151 510 tgl 15 0 empty empty empty 17 7 0 10 -262144 -1 -1
0 1;
#X obj 573 342 snapshot~;
#X obj 671 291 tgl 15 0 empty empty empty 17 7 0 10 -262144 -1 -1 1
1;
#X obj 655 313 metro 100;
#X floatatom 586 372 5 0 0 0 - - -;
#X floatatom 979 467 5 0 0 0 - - -;
#X obj 921 393 spigot;
#X msg 1153 569 1;
#X obj 1095 571 *;
#X floatatom 1085 605 5 0 0 0 - - -;
#X obj 1142 478 sel 1;
#X obj 1085 637 send m;
#X obj 715 247 receive m;
#X obj 1355 379 receive command;
#X obj 1339 426 routeOSC /1/atmoff;
#X obj 1309 471 sel 1;
#X obj 1309 495 * 0;
#X obj 1152 538 metro 3000;
#N canvas -8 -8 1366 685 tracks 1;
#X obj 122 367 == 0;
#X obj 242 585 outlet;
#X obj 40 23 inlet;
#X obj 42 54 routeOSC /1/track-;
#X floatatom 204 235 5 0 0 0 - - -;
#X obj 72 134 +;
#X obj 188 338 == 1;
#X obj 266 367 == 2;
#X obj 330 367 == 3;
#X obj 375 358 == 4;
#X obj 462 371 == 5;
#X obj 516 359 == 6;
#X obj 190 56 routeOSC /1/track+;
#X obj 134 99 * -1;
#X obj 159 278 < 0;
#X floatatom 229 310 5 0 0 0 - - -;
#X obj 298 243 sel 1;
#X msg 262 210 0;
#X obj 103 245 sel 1;
#X floatatom 149 313 5 0 0 0 - - -;
#X obj 102 401 sel 1;
#X obj 168 377 sel 1;
#X obj 261 394 sel 1;
#X obj 325 397 sel 1;
#X obj 386 397 sel 1;
#X obj 453 398 sel 1;
#X obj 525 402 sel 1;
#X msg 197 422 read -resize C:/wavs/Invisible.wav array1;
#X msg 146 456 read -resize C:/wavs/flashes.wav array1;
#X msg 297 490 read -resize C:/wavs/Lost.wav array1;
#X msg 476 466 read -resize C:/wavs/elect.wav array1;
#X msg 569 495 read -resize C:/wavs/one.wav array1;
#X msg 405 548 read -resize C:/wavs/Levels.wav array1;
#X msg 12 518 read -resize C:/wavs/JustLittle.wav array1;
#X msg 1016 347 send /1/trackname JustLittle;
#X msg 992 372 send /1/trackname Flashes;
#X msg 957 403 send /1/trackname Invisible;
#X msg 927 438 send /1/trackname Levels;
#X msg 898 467 send /1/trackname Lost;
#X msg 866 504 send /1/trackname elect;
#X msg 820 553 send /1/trackname one;
#X obj 931 620 outlet;
#X obj 352 52 routeOSC /1/atmread;
#X obj 331 113 sel 1;
#X obj 295 155 * 0;
#X obj 589 252 == 7;
#X msg 694 322 read -resize C:/wavs/record.wav array1;
#X msg 691 577 send /1/trackname record;
#X obj 621 303 sel 1;
#X obj 506 63 routeOSC /1/bymarker;
#X obj 660 60 routeOSC /1/atmlatch;
#X msg 130 212 6;
#X obj 230 278 > 6;
#X obj 516 109 sel 0;
#X msg 460 169 4;
#X msg 638 176 7;
#X obj 670 112 sel 0;
#X obj 847 18 routeOSC /1/atmtouch;
#X obj 866 70 sel 0;
#X obj 826 193 outlet;
#X msg 824 126 open C:/wavs/OgroGrito.wav;
#X obj 1094 77 sel 0;
#X obj 1054 200 outlet;
#X msg 1052 133 open C:/wavs/sample.wav;
#X obj 1075 25 routeOSC /1/click;
#X connect 0 0 20 0;
#X connect 2 0 3 0;
#X connect 2 0 12 0;
#X connect 2 0 42 0;
#X connect 2 0 49 0;
#X connect 2 0 50 0;
#X connect 2 0 57 0;
#X connect 2 0 64 0;
#X connect 3 0 5 0;
#X connect 4 0 5 1;
#X connect 4 0 14 0;
#X connect 4 0 0 0;
#X connect 4 0 6 0;
#X connect 4 0 7 0;
#X connect 4 0 8 0;
#X connect 4 0 9 0;
#X connect 4 0 10 0;
#X connect 4 0 11 0;
#X connect 4 0 52 0;
#X connect 5 0 4 0;
#X connect 6 0 21 0;
#X connect 7 0 22 0;
#X connect 8 0 23 0;
#X connect 9 0 24 0;
#X connect 10 0 25 0;
#X connect 11 0 26 0;
#X connect 12 0 13 0;
#X connect 13 0 5 0;
#X connect 14 0 19 0;
#X connect 15 0 16 0;
#X connect 16 0 17 0;
#X connect 17 0 4 0;
#X connect 18 0 51 0;
#X connect 19 0 18 0;
#X connect 20 0 33 0;
#X connect 20 0 34 0;
#X connect 21 0 28 0;
#X connect 21 0 35 0;
#X connect 22 0 27 0;
#X connect 22 0 36 0;
#X connect 23 0 32 0;
#X connect 23 0 37 0;
#X connect 24 0 29 0;
#X connect 24 0 38 0;
#X connect 25 0 30 0;
#X connect 25 0 39 0;
#X connect 26 0 31 0;
#X connect 26 0 40 0;
#X connect 27 0 1 0;
#X connect 28 0 1 0;
#X connect 29 0 1 0;
#X connect 30 0 1 0;
#X connect 31 0 1 0;
#X connect 32 0 1 0;
#X connect 33 0 1 0;
#X connect 34 0 41 0;
#X connect 35 0 41 0;
#X connect 36 0 41 0;
#X connect 37 0 41 0;
#X connect 38 0 41 0;
#X connect 39 0 41 0;
#X connect 40 0 41 0;
#X connect 42 0 43 0;
#X connect 43 0 44 0;
#X connect 44 0 4 0;
#X connect 45 0 48 0;
#X connect 46 0 1 0;
#X connect 47 0 41 0;
#X connect 48 0 46 0;
#X connect 48 0 47 0;
#X connect 49 0 53 0;
#X connect 50 0 56 0;
#X connect 51 0 4 0;
#X connect 52 0 15 0;
#X connect 53 0 54 0;
#X connect 54 0 4 0;
#X connect 55 0 45 0;
#X connect 56 0 55 0;
#X connect 57 0 58 0;
#X connect 58 0 60 0;
#X connect 60 0 59 0;
#X connect 61 0 63 0;
#X connect 63 0 62 0;
#X connect 64 0 61 0;
#X restore 399 529 pd tracks;
#X obj 396 484 receive command;
#X obj 1034 235;
#X obj 1034 259;
#X obj 317 562 send track;
#X obj 611 125 receive track;
#X obj 432 138 print;
#X msg 494 167 read -resize \$1 array1;
#N canvas -8 -8 1366 685 record 0;
#N canvas 0 50 450 250 (subpatch) 0;
#X array array2 100 float 3;
#A 0 0 0 0 0 0 0 0 0 0 0 0 0 0 0 0 0 0 0 0 0 0 0 0 0 0 0 0 0 0 0 0
0 0 0 0 0 0 0 0 0 0 0 0 0 0 0 0 0 0 0 0 0 0 0 0 0 0 0 0 0 0 0 0 0 0
0 0 0 0 0 0 0 0 0 0 0 0 0 0 0 0 0 0 0 0 0 0 0 0 0 0 0 0 0 0 0 0 0 0
0;
#X coords 0 1 100 -1 200 140 1;
#X restore 835 159 graph;
#X obj 510 77 adc~;
#X obj 586 210 vu 15 120 empty empty -1 -8 0 10 -66577 -1 1 0;
#X obj 585 174 - 100;
#X obj 586 139 env~ 128;
#X obj 465 400 *~;
#X obj 536 162 vsl 15 128 0 1 0 0 empty empty empty 0 -9 0 10 -262144
-1 -1 0 1;
#X msg 525 313 \$1 20;
#X obj 524 351 line~;
#X obj 437 470 dac~;
#X obj 549 468 tabwrite~ array2;
#X obj 593 382 metro 100;
#X obj 609 348 bng 15 250 50 0 empty empty empty 17 7 0 10 -262144
-1 -1;
#X obj 732 468 writesf~;
#X msg 751 406 open C:/wavs/record.wav \, start;
#X msg 844 434 stop;
#X obj 639 416 *~;
#X floatatom 673 385 5 0 0 0 - - -;
#X obj 735 298 inlet;
#X obj 741 332 routeOSC /1/record;
#X obj 744 364 sel 0;
#X obj 852 381 sel 0;
#X obj 900 356 routeOSC /1/recenable;
#X msg 667 189 0.5;
#X msg 726 177 0;
#X connect 1 0 4 0;
#X connect 1 0 5 0;
#X connect 1 1 4 0;
#X connect 1 1 5 0;
#X connect 3 0 2 0;
#X connect 4 0 3 0;
#X connect 5 0 10 0;
#X connect 5 0 9 0;
#X connect 5 0 9 1;
#X connect 5 0 16 0;
#X connect 6 0 7 0;
#X connect 7 0 8 0;
#X connect 8 0 5 1;
#X connect 11 0 10 0;
#X connect 12 0 11 0;
#X connect 14 0 13 0;
#X connect 15 0 13 0;
#X connect 16 0 13 0;
#X connect 17 0 16 1;
#X connect 18 0 19 0;
#X connect 18 0 22 0;
#X connect 19 0 20 0;
#X connect 20 0 14 0;
#X connect 20 0 12 0;
#X connect 20 0 23 0;
#X connect 21 0 15 0;
#X connect 21 0 24 0;
#X connect 22 0 21 0;
#X connect 23 0 6 0;
#X connect 24 0 6 0;
#X restore 833 217 pd record;
#X obj 807 182 receive command;
#X obj 421 582 readsf~ 2;
#X obj 502 611 bng 15 250 50 0 empty empty empty 17 7 0 10 -262144
-1 -1;
#X msg 318 592 start;
#X msg 319 618 stop;
#X obj 452 642 *~;
#X floatatom 497 631 5 0 0 0 - - -;
#X obj 408 649 *~;
#X obj 415 684 dac~ 1 2;
#X obj 598 665 readsf~ 2;
#X obj 679 694 bng 15 250 50 0 empty empty empty 17 7 0 10 -262144
-1 -1;
#X msg 495 675 start;
#X msg 496 701 stop;
#X obj 629 725 *~;
#X floatatom 674 714 5 0 0 0 - - -;
#X obj 585 732 *~;
#X obj 592 767 dac~ 1 2;
#X connect 0 0 1 0;
#X connect 1 0 2 0;
#X connect 1 0 38 0;
#X connect 4 0 10 0;
#X connect 4 0 11 0;
#X connect 4 0 12 0;
#X connect 5 0 8 0;
#X connect 5 0 40 1;
#X connect 6 0 40 0;
#X connect 6 0 72 0;
#X connect 8 0 6 0;
#X connect 8 0 6 1;
#X connect 9 0 6 0;
#X connect 10 0 13 0;
#X connect 10 0 34 0;
#X connect 11 0 9 0;
#X connect 12 0 26 0;
#X connect 14 0 60 0;
#X connect 15 0 16 0;
#X connect 17 0 16 0;
#X connect 18 0 37 0;
#X connect 19 0 20 0;
#X connect 20 0 22 0;
#X connect 20 0 26 0;
#X connect 20 0 27 0;
#X connect 21 0 23 0;
#X connect 22 0 21 1;
#X connect 24 0 6 0;
#X connect 25 0 24 0;
#X connect 26 0 21 0;
#X connect 27 0 22 1;
#X connect 28 0 29 0;
#X connect 29 0 30 1;
#X connect 30 0 43 0;
#X connect 31 0 32 0;
#X connect 33 0 35 0;
#X connect 33 0 96 0;
#X connect 33 0 95 0;
#X connect 34 0 33 0;
#X connect 36 0 37 0;
#X connect 37 0 17 0;
#X connect 39 0 30 0;
#X connect 40 0 39 0;
#X connect 41 0 47 0;
#X connect 42 0 43 1;
#X connect 43 0 7 0;
#X connect 43 0 7 1;
#X connect 44 0 45 0;
#X connect 45 0 42 0;
#X connect 45 0 43 2;
#X connect 46 0 44 0;
#X connect 47 0 46 0;
#X connect 48 0 49 0;
#X connect 49 0 51 0;
#X connect 50 0 30 1;
#X connect 51 0 50 0;
#X connect 52 0 53 0;
#X connect 52 0 54 0;
#X connect 53 0 61 0;
#X connect 53 0 91 0;
#X connect 54 0 63 0;
#X connect 55 0 57 0;
#X connect 56 0 57 1;
#X connect 56 0 58 0;
#X connect 57 0 56 0;
#X connect 59 0 6 1;
#X connect 60 0 16 0;
#X connect 61 0 67 0;
#X connect 62 0 65 0;
#X connect 63 0 68 0;
#X connect 64 0 66 0;
#X connect 65 0 55 0;
#X connect 66 0 55 0;
#X connect 67 0 62 0;
#X connect 68 0 64 0;
#X connect 69 0 70 0;
#X connect 70 0 77 1;
#X connect 70 0 81 0;
#X connect 71 0 88 0;
#X connect 72 0 75 0;
#X connect 73 0 74 0;
#X connect 74 0 72 0;
#X connect 75 0 77 0;
#X connect 76 0 79 0;
#X connect 77 0 76 0;
#X connect 78 0 79 1;
#X connect 79 0 80 0;
#X connect 80 0 82 0;
#X connect 81 0 71 0;
#X connect 83 0 6 1;
#X connect 84 0 85 0;
#X connect 85 0 86 0;
#X connect 86 0 87 0;
#X connect 87 0 71 0;
#X connect 88 0 78 0;
#X connect 88 0 80 0;
#X connect 89 0 93 0;
#X connect 89 1 99 0;
#X connect 89 1 101 0;
#X connect 89 2 17 0;
#X connect 89 3 107 0;
#X connect 89 3 109 0;
#X connect 90 0 89 0;
#X connect 91 0 92 0;
#X connect 94 0 5 0;
#X connect 96 0 5 0;
#X connect 98 0 97 0;
#X connect 99 0 105 0;
#X connect 99 1 103 0;
#X connect 99 2 100 0;
#X connect 101 0 99 0;
#X connect 102 0 99 0;
#X connect 103 0 106 1;
#X connect 103 0 106 0;
#X connect 104 0 103 1;
#X connect 104 0 105 1;
#X connect 105 0 106 0;
#X connect 105 0 106 1;
#X connect 107 0 113 0;
#X connect 107 1 111 0;
#X connect 107 2 108 0;
#X connect 109 0 107 0;
#X connect 110 0 107 0;
#X connect 111 0 114 1;
#X connect 111 0 114 0;
#X connect 112 0 111 1;
#X connect 112 0 113 1;
#X connect 113 0 114 0;
#X connect 113 0 114 1;
